<svg xmlns="http://www.w3.org/2000/svg" width="101" height="101" viewBox="0 0 101 101"><defs><clipPath id="couha"><path fill="#fff" d="M50.937.875C78.587.875 101 23.289 101 50.937 101 78.587 78.586 101 50.937 101 23.29 101 .875 78.586.875 50.937.875 23.29 23.289.875 50.937.875z"/></clipPath></defs><g><g><path fill="#fff" d="M50.937.875C78.587.875 101 23.289 101 50.937 101 78.587 78.586 101 50.937 101 23.29 101 .875 78.586.875 50.937.875 23.29 23.289.875 50.937.875z"/><path fill="none" stroke="#dce8ee" stroke-miterlimit="20" stroke-width="6" d="M50.937.875C78.587.875 101 23.289 101 50.937 101 78.587 78.586 101 50.937 101 23.29 101 .875 78.586.875 50.937.875 23.29 23.289.875 50.937.875z" clip-path="url(&quot;#couha&quot;)"/></g></g></svg>